<svg xmlns="http://www.w3.org/2000/svg" xmlns:svg="http://www.w3.org/2000/svg" id="svg2" width="576" height="576" x="0" y="0" enable-background="new -.031 -.031 576 576" version="1.1" viewBox="-0.031 -0.031 576 576" xml:space="preserve"><metadata id="metadata36"/><path id="path6-1" d="m 41.96795,574.97073 h 492.0031 c 10.87324,0 21.30243,-4.3185 28.99131,-12.00837 7.68888,-7.68888 12.00837,-18.11707 12.00837,-28.99131 V 41.96794 c 0,-10.87424 -4.31949,-21.30242 -12.00837,-28.9913 C 555.27248,5.2867601 544.84329,0.96727009 533.97005,0.96727009 H 41.96795 C 31.0937,0.96727009 20.66551,5.2867601 12.97664,12.97564 5.2867601,20.66451 0.96727009,31.0937 0.96727009,41.96794 v 492.00311 c 0,10.87424 4.31949001,21.30243 12.00836991,28.99131 7.68888,7.68888 18.11806,12.00837 28.99231,12.00837 z" style="fill:#fff;stroke:#000;stroke-width:1.99654019;stroke-linecap:round;stroke-linejoin:round;stroke-miterlimit:4;stroke-dasharray:none"/><polygon id="polygon8-7" points="538.362 36.576 538.362 36.576 36.576 36.576 36.576 36.576 36.576 538.362 538.362 538.362 538.362 538.362" transform="matrix(1.0001141,0,0,1.0001141,0.46719988,0.46719988)" style="fill:#00f;stroke:#00f;stroke-width:.17640001;stroke-linecap:round;stroke-linejoin:round"/><rect id="rect10-4" width="397.459" height="397.459" x="89.239" y="89.239" style="fill:#fff;stroke:#00f;stroke-width:.17642012;stroke-linecap:round;stroke-linejoin:round"/><polygon id="polygon12" points="334.302 316.636 320.924 332.094 353.302 332.315 353.302 316.636" style="fill:none"/><polygon id="polygon14" points="375.302 316.636 357.302 316.636 357.302 332.343 390.136 332.568" style="fill:none"/><path id="path16" d="m 428.636,336.636 -28.667,-4 -1.67,-0.012 -21.663,-19.321 h -46.667 l -19.345,18.721 -7.988,-0.055 -0.667,2.667 -0.667,14 6.667,2 h 7.034 c 0.347,4.105 3.852,7.333 8.132,7.333 4.281,0 7.786,-3.228 8.133,-7.333 h 72.402 c 0.347,4.105 3.852,7.333 8.132,7.333 4.281,0 7.786,-3.228 8.133,-7.333 h 4.034 l 4,-2 3.333,-2 0.667,-6.667 -3.333,-3.333 z m -75.334,-4.321 -32.378,-0.222 13.378,-15.458 h 19 v 15.68 z m 4,0.028 v -15.707 h 18 l 14.834,15.933 -32.834,-0.226 z"/><polygon id="polygon18" points="174.968 316.969 161.59 332.427 193.968 332.648 193.968 316.969" style="fill:none"/><polygon id="polygon20" points="215.968 316.969 197.968 316.969 197.968 332.676 230.802 332.901" style="fill:none"/><path id="path22" d="m 269.302,336.969 -28.667,-4 -1.67,-0.012 -21.663,-19.321 h -46.667 l -19.345,18.721 -7.988,-0.055 -0.667,2.667 -0.667,14 6.667,2 h 7.034 c 0.347,4.105 3.852,7.333 8.132,7.333 4.281,0 7.786,-3.228 8.133,-7.333 h 72.402 c 0.347,4.105 3.852,7.333 8.132,7.333 4.281,0 7.786,-3.228 8.133,-7.333 h 4.034 l 4,-2 3.333,-2 0.667,-6.667 -3.333,-3.333 z m -75.334,-4.321 -32.378,-0.222 13.378,-15.458 h 19 v 15.68 z m 4,0.028 v -15.707 h 18 l 14.834,15.933 -32.834,-0.226 z"/><polygon id="polygon24" points="455.636 357.636 118.302 357.636 118.302 367.636 105.302 367.636 105.302 357.969 96.302 357.969 96.302 388.969 105.302 388.969 105.302 379.303 468.636 379.303 468.636 389.969 477.636 389.969 477.636 358.969 468.636 358.969 468.636 367.636 455.636 367.636"/><ellipse id="ellipse26" cx="149.969" cy="392.469" rx="15" ry="15.5"/><ellipse id="ellipse28" cx="183.969" cy="392.469" rx="15" ry="15.5"/><ellipse id="ellipse30" cx="390.635" cy="392.469" rx="15" ry="15.5"/><ellipse id="ellipse32" cx="423.968" cy="392.469" rx="15" ry="15.5"/></svg>